<?xml version="1.0" encoding="utf-8"?>
<svg xmlns="http://www.w3.org/2000/svg"
     xmlns:xlink="http://www.w3.org/1999/xlink"
     width="187px" height="24px" viewBox="0 0 187 24">
    <path fillRule="evenodd"
          d="M 181.92 23.52C 181.92 23.52 181.92 21.94 181.92 21.94 180.74 23.58 178.9 24 177.5 24 175.97 24 174.1 23.55 172.38 21.71 171.01 20.23 170.35 18.58 170.35 16.42 170.35 13.71 171.4 11.81 172.54 10.64 173.75 9.42 175.62 8.61 177.66 8.61 179.94 8.61 181.31 9.81 181.92 10.48 181.92 10.48 181.92 9.09 181.92 9.09 181.92 9.09 187 9.09 187 9.09 187 9.09 187 23.52 187 23.52 187 23.52 181.92 23.52 181.92 23.52ZM 181.09 13.93C 180.61 13.48 179.88 13 178.8 13 178.17 13 177.31 13.22 176.58 13.93 175.88 14.61 175.56 15.55 175.56 16.29 175.56 17.13 175.91 18.03 176.54 18.64 177.08 19.16 177.97 19.61 178.83 19.61 179.66 19.61 180.48 19.26 181.12 18.61 181.57 18.16 182.07 17.45 182.07 16.29 182.07 15.61 181.88 14.71 181.09 13.93ZM 163.05 16.22C 163.05 15.16 162.99 14.06 162.41 13.42 161.94 12.87 161.3 12.81 160.79 12.81 160.25 12.81 159.52 12.9 158.95 13.42 158.51 13.84 158.09 14.61 158.09 15.77 158.09 15.77 158.09 23.52 158.09 23.52 158.09 23.52 153.01 23.52 153.01 23.52 153.01 23.52 153.01-0 153.01-0 153.01-0 158.09-0 158.09-0 158.09-0 158.09 10.9 158.09 10.9 158.47 10.42 159.08 9.84 159.68 9.48 160.67 8.9 161.72 8.77 162.61 8.77 164.61 8.77 165.94 9.45 166.8 10.32 168.07 11.61 168.14 12.97 168.14 14.35 168.14 14.35 168.14 23.52 168.14 23.52 168.14 23.52 163.05 23.52 163.05 23.52 163.05 23.52 163.05 16.22 163.05 16.22ZM 144.99 21.94C 143.56 23.81 141.69 24 140.7 24 138.67 24 137.05 23.32 135.71 22 134.28 20.58 133.43 18.55 133.43 16.26 133.43 13.8 134.44 11.81 135.74 10.55 137.14 9.19 139.02 8.61 140.77 8.61 142.7 8.61 144.07 9.48 144.99 10.48 144.99 10.48 144.99-0 144.99-0 144.99-0 150.08-0 150.08-0 150.08-0 150.08 23.52 150.08 23.52 150.08 23.52 144.99 23.52 144.99 23.52 144.99 23.52 144.99 21.94 144.99 21.94ZM 144.2 13.97C 143.63 13.35 142.83 13 141.88 13 140.8 13 140.07 13.48 139.62 13.93 139.05 14.52 138.64 15.42 138.64 16.39 138.64 17.13 138.95 17.97 139.62 18.64 140.32 19.35 141.15 19.61 141.88 19.61 142.7 19.61 143.53 19.23 144.07 18.74 144.74 18.13 145.15 17.16 145.15 16.29 145.15 15.48 144.71 14.52 144.2 13.97ZM 126.06 21.94C 124.63 23.81 122.76 24 121.77 24 119.74 24 118.12 23.32 116.78 22 115.35 20.58 114.49 18.55 114.49 16.26 114.49 13.8 115.51 11.81 116.81 10.55 118.21 9.19 120.09 8.61 121.83 8.61 123.77 8.61 125.14 9.48 126.06 10.48 126.06 10.48 126.06-0 126.06-0 126.06-0 131.15-0 131.15-0 131.15-0 131.15 23.52 131.15 23.52 131.15 23.52 126.06 23.52 126.06 23.52 126.06 23.52 126.06 21.94 126.06 21.94ZM 125.27 13.97C 124.69 13.35 123.9 13 122.95 13 121.87 13 121.14 13.48 120.69 13.93 120.12 14.52 119.71 15.42 119.71 16.39 119.71 17.13 120.02 17.97 120.69 18.64 121.39 19.35 122.22 19.61 122.95 19.61 123.77 19.61 124.6 19.23 125.14 18.74 125.81 18.13 126.22 17.16 126.22 16.29 126.22 15.48 125.78 14.52 125.27 13.97ZM 104.83 24C 102.7 24 100.09 23.77 98.41 21.94 97.33 20.77 97.07 19.48 97.07 18.1 97.07 18.1 97.07 9.09 97.07 9.09 97.07 9.09 102.16 9.09 102.16 9.09 102.16 9.09 102.16 17.16 102.16 17.16 102.16 17.74 102.25 18.64 102.92 19.26 103.43 19.71 104.1 19.81 104.7 19.81 105.33 19.81 105.94 19.74 106.51 19.19 107.15 18.55 107.24 17.81 107.24 17.16 107.24 17.16 107.24 9.09 107.24 9.09 107.24 9.09 112.33 9.09 112.33 9.09 112.33 9.09 112.33 18.1 112.33 18.1 112.33 19.32 112.23 20.64 110.96 21.97 109.21 23.81 106.76 24 104.83 24ZM 87.35 23.52C 87.35 23.52 78.52 23.52 78.52 23.52 78.52 23.52 78.52 2 78.52 2 78.52 2 86.71 2 86.71 2 88.24 2 90.05 2.22 91.35 3.68 92.09 4.48 92.66 5.8 92.66 7.71 92.66 8.64 92.5 9.45 92.05 10.35 91.61 11.19 91.13 11.68 90.34 12.03 91.45 12.16 92.56 12.68 93.23 13.32 94.09 14.16 94.66 15.55 94.66 17.26 94.66 19.29 93.9 20.68 93.1 21.48 91.96 22.68 89.96 23.52 87.35 23.52ZM 87.13 6.93C 86.78 6.58 86.11 6.29 85.03 6.29 85.03 6.29 84.01 6.29 84.01 6.29 84.01 6.29 84.01 10.48 84.01 10.48 84.01 10.48 85.03 10.48 85.03 10.48 85.6 10.48 86.56 10.42 87.13 9.81 87.48 9.45 87.64 8.87 87.64 8.39 87.64 7.84 87.45 7.29 87.13 6.93ZM 88.56 15.35C 87.89 14.68 86.52 14.64 85.16 14.64 85.16 14.64 84.01 14.64 84.01 14.64 84.01 14.64 84.01 19.16 84.01 19.16 84.01 19.16 85.25 19.16 85.25 19.16 86.78 19.16 88.05 19 88.65 18.29 88.91 18 89.1 17.52 89.1 16.9 89.1 16.22 88.88 15.68 88.56 15.35ZM 62.72-0C 62.72-0 67.81-0 67.81-0 67.81-0 67.81 23.52 67.81 23.52 67.81 23.52 62.72 23.52 62.72 23.52 62.72 23.52 62.72-0 62.72-0ZM 50.71 19.68C 51.03 20 51.67 20.39 52.81 20.39 52.94 20.39 53.83 20.35 54.46 20 54.78 19.81 55.13 19.48 55.35 19.03 55.35 19.03 60.22 19.03 60.22 19.03 59.99 19.84 59.55 20.97 58.5 22 57.45 23.03 55.8 24 52.72 24 50.84 24 48.59 23.58 46.84 21.81 45.92 20.87 44.74 19.1 44.74 16.35 44.74 13.93 45.63 12 46.87 10.77 48.05 9.61 49.89 8.68 52.69 8.68 54.34 8.68 56.47 9.03 58.15 10.64 60.15 12.58 60.41 15.1 60.41 16.71 60.41 16.71 60.41 17.26 60.41 17.26 60.41 17.26 49.82 17.26 49.82 17.26 49.82 18.03 50.11 19.06 50.71 19.68ZM 55.74 14.29C 55.61 13.74 55.29 13.13 54.91 12.74 54.24 12.06 53.32 11.97 52.81 11.97 51.95 11.97 51.29 12.19 50.75 12.74 50.4 13.13 50.08 13.64 49.98 14.29 49.98 14.29 55.74 14.29 55.74 14.29ZM 45.38 23.52C 45.38 23.52 38.64 23.52 38.64 23.52 38.64 23.52 35.02 19.23 35.02 19.23 35.02 19.23 31.39 23.52 31.39 23.52 31.39 23.52 24.66 23.52 24.66 23.52 24.66 23.52 31.74 15.68 31.74 15.68 31.74 15.68 25.99 9.09 25.99 9.09 25.99 9.09 32.6 9.09 32.6 9.09 32.6 9.09 35.05 12.06 35.05 12.06 35.05 12.06 37.56 9.09 37.56 9.09 37.56 9.09 44.14 9.09 44.14 9.09 44.14 9.09 38.26 15.68 38.26 15.68 38.26 15.68 45.38 23.52 45.38 23.52ZM 20.94 6C 19.35 6 18.08 4.71 18.08 3.1 18.08 1.48 19.35 0.19 20.94 0.19 22.53 0.19 23.8 1.48 23.8 3.1 23.8 4.71 22.53 6 20.94 6ZM 9.12 16.39C 9.12 16.39 5.66 16.39 5.66 16.39 5.66 16.39 5.66 23.52 5.66 23.52 5.66 23.52 0.16 23.52 0.16 23.52 0.16 23.52 0.16 2 0.16 2 0.16 2 8.93 2 8.93 2 10.77 2 12.68 2.35 14.3 3.93 15.95 5.55 16.27 7.35 16.27 9.16 16.27 10.87 16.05 12.87 14.4 14.52 12.74 16.16 10.77 16.39 9.12 16.39ZM 9.88 7.29C 9.25 6.61 8.23 6.51 7.53 6.51 7.53 6.51 5.66 6.51 5.66 6.51 5.66 6.51 5.66 11.87 5.66 11.87 5.66 11.87 7.5 11.87 7.5 11.87 8.07 11.87 9.15 11.81 9.82 11.19 10.49 10.61 10.52 9.74 10.52 9.22 10.52 8.64 10.46 7.87 9.88 7.29ZM 23.49 23.52C 23.49 23.52 18.4 23.52 18.4 23.52 18.4 23.52 18.4 9.09 18.4 9.09 18.4 9.09 23.49 9.09 23.49 9.09 23.49 9.09 23.49 23.52 23.49 23.52Z"
          fill="rgb(255,255,255)"/>
</svg>